<svg width="100" height="100" viewBox="0 0 100 100" xmlns="http://www.w3.org/2000/svg" xmlns:xlink="http://www.w3.org/1999/xlink">
    <defs>
        <path d="M10 73.328V80c0 5.516 13.438 10 30 10 16.563 0 30-4.484 30-10v-6.672C63.547 77.875 51.75 80 40 80s-23.547-2.125-30-6.672zM60 30c16.563 0 30-4.484 30-10S76.562 10 60 10c-16.563 0-30 4.484-30 10s13.438 10 30 10zM10 56.938V65c0 5.516 13.438 10 30 10 16.563 0 30-4.484 30-10v-8.063C63.547 62.25 51.734 65 40 65c-11.734 0-23.547-2.75-30-8.063zm65 1.718c8.953-1.734 15-4.953 15-8.656v-6.672c-3.625 2.563-8.953 4.313-15 5.39v9.938zM40 35c-16.563 0-30 5.594-30 12.5S23.438 60 40 60c16.563 0 30-5.594 30-12.5S56.562 35 40 35zm34.266 8.797C83.64 42.109 90 38.797 90 35v-6.672c-5.547 3.922-15.078 6.031-25.11 6.531 4.61 2.235 8 5.235 9.376 8.938z" id="9b01uj1eda"/>
    </defs>
    <g fill="none" fill-rule="evenodd">
        <path d="M0 0h100v100H0z"/>
        <use fill-opacity=".2" fill="#6B7998" fill-rule="nonzero" xlink:href="#9b01uj1eda"/>
    </g>
</svg>
