<svg width="24" height="24" viewBox="0 0 24 24" xmlns="http://www.w3.org/2000/svg" xmlns:xlink="http://www.w3.org/1999/xlink">
    <defs>
        <path d="M9.61 12.5c0 .273-.06.516-.12.759l5.04 3.581a2.742 2.742 0 0 1 1.62-.546c1.56 0 2.82 1.275 2.82 2.853 0 1.578-1.26 2.853-2.82 2.853-1.56 0-2.82-1.275-2.82-2.853 0-.273.06-.516.12-.759l-5.01-3.581c-.45.334-1.02.546-1.62.546C5.26 15.353 4 14.078 4 12.5c0-1.578 1.26-2.853 2.82-2.853.6 0 1.17.212 1.62.546l5.04-3.581c-.06-.243-.12-.486-.12-.759C13.36 4.275 14.62 3 16.18 3 17.74 3 19 4.275 19 5.853c0 1.578-1.26 2.853-2.82 2.853-.6 0-1.17-.212-1.62-.546L9.49 11.74c.09.243.12.486.12.759" id="o5w4r1k9qa"/>
    </defs>
    <g fill="none" fill-rule="evenodd">
        <path d="M0 0h24v24H0z"/>
        <use fill="#4361EE" xlink:href="#o5w4r1k9qa"/>
    </g>
</svg>
