<svg width="100" height="100" viewBox="0 0 100 100" xmlns="http://www.w3.org/2000/svg" xmlns:xlink="http://www.w3.org/1999/xlink">
    <defs>
        <path d="M55.333 31.25V10H22c-2.217 0-4 1.672-4 3.75v72.5c0 2.078 1.783 3.75 4 3.75h56c2.217 0 4-1.672 4-3.75V35H59.333c-2.2 0-4-1.688-4-3.75zM82 29.047V30H60.667V10h1.016c1.067 0 2.084.39 2.834 1.094l16.316 15.312A3.623 3.623 0 0 1 82 29.046z" id="y2ur5iqb5a"/>
    </defs>
    <g fill="none" fill-rule="evenodd">
        <path d="M0 0h100v100H0z"/>
        <use fill-opacity=".2" fill="#6B7998" fill-rule="nonzero" xlink:href="#y2ur5iqb5a"/>
    </g>
</svg>
